<?xml version="1.0" encoding="UTF-8" ?>
<!DOCTYPE svg PUBLIC "-//W3C//DTD SVG 1.1//EN" "http://www.w3.org/Graphics/SVG/1.1/DTD/svg11.dtd">
<svg width="1024pt" height="1024pt" viewBox="0 0 1024 1024" version="1.1" xmlns="http://www.w3.org/2000/svg">
<g id="#121212ff">
<path fill="#121212" opacity="1.00" d=" M 0.00 0.00 L 1024.00 0.00 L 1024.00 1024.00 L 0.00 1024.00 L 0.00 0.00 M 460.12 204.28 C 458.50 212.42 460.44 220.73 460.00 228.95 C 459.57 233.66 463.61 237.78 468.12 238.41 C 475.35 239.59 482.73 238.63 490.03 239.07 C 490.25 239.30 490.71 239.78 490.93 240.02 C 491.08 247.68 490.97 255.35 491.03 263.02 C 484.78 264.77 478.19 265.01 471.96 266.92 C 430.22 275.99 393.20 301.86 367.30 335.43 C 356.16 349.84 346.92 365.93 341.30 383.32 C 335.47 398.56 333.13 414.85 331.20 430.98 C 330.59 445.30 330.80 459.73 332.83 473.93 C 337.94 503.47 348.84 532.60 367.74 556.16 C 381.00 572.89 397.20 587.22 415.01 598.95 C 439.74 614.99 468.57 624.42 497.89 626.90 C 512.61 627.05 527.47 627.55 542.03 624.90 C 554.53 622.40 567.03 619.45 578.82 614.53 C 597.07 606.70 614.00 595.90 629.03 582.93 C 643.06 570.65 655.86 556.79 665.81 540.96 C 675.66 525.58 682.52 508.46 687.50 490.94 C 690.78 478.21 691.61 465.03 692.42 451.97 C 693.00 446.38 693.15 440.73 692.45 435.15 C 691.41 408.43 684.07 382.05 671.78 358.33 C 665.97 348.02 659.85 337.73 651.79 328.99 C 651.11 328.05 650.12 327.22 649.91 326.04 C 651.87 323.03 654.36 320.38 656.66 317.61 C 657.46 316.82 658.44 315.26 659.77 316.09 C 662.66 318.17 664.58 321.30 667.42 323.44 C 670.82 325.32 675.16 325.01 678.63 323.43 C 681.36 321.63 683.27 318.88 685.63 316.66 C 687.55 314.62 689.90 312.95 691.48 310.60 C 694.14 306.99 692.43 302.30 691.52 298.40 C 688.23 293.18 683.27 289.32 679.46 284.50 C 674.98 279.66 670.91 274.43 666.29 269.72 C 662.80 265.92 656.95 265.80 652.40 267.44 C 649.20 269.13 647.24 272.33 644.53 274.62 C 641.32 277.65 637.19 281.05 637.92 286.00 C 637.35 292.28 643.77 295.64 646.11 300.79 C 642.28 303.73 639.47 308.26 635.02 310.20 C 631.33 308.33 628.76 304.90 625.52 302.40 C 599.89 281.85 568.63 268.44 536.13 263.79 C 534.74 263.65 532.87 262.82 533.22 261.11 C 533.40 254.73 533.34 248.36 533.17 241.98 C 532.72 240.30 534.48 239.18 535.93 239.14 C 541.98 238.81 548.04 239.21 554.10 238.93 C 558.83 238.58 563.13 234.93 563.85 230.17 C 564.34 222.76 565.02 215.32 564.50 207.90 C 564.05 202.06 558.73 197.18 552.95 196.91 C 541.65 196.21 530.34 197.21 519.04 196.99 C 504.03 196.96 489.01 196.92 474.01 196.79 C 468.38 196.43 462.69 199.14 460.12 204.28 M 304.98 341.04 C 302.10 344.15 299.31 347.36 296.07 350.11 C 277.87 366.86 260.99 384.97 243.12 402.07 C 232.87 412.50 222.06 422.36 212.06 433.04 C 208.88 436.60 204.41 439.60 203.46 444.59 C 202.04 448.42 204.22 452.44 206.86 455.16 C 209.74 457.94 212.54 460.82 215.45 463.58 C 231.53 478.49 246.77 494.27 262.50 509.54 C 275.85 522.86 289.41 535.97 302.89 549.17 C 304.43 551.17 307.01 551.44 308.98 549.86 C 310.42 535.64 308.89 521.37 309.00 507.12 C 299.61 499.87 291.52 491.17 283.51 482.47 C 271.79 470.77 259.85 459.23 249.08 446.65 C 249.03 446.24 248.92 445.44 248.86 445.03 C 267.61 425.41 287.53 406.92 306.27 387.27 C 307.42 385.96 309.15 384.86 309.32 382.96 C 309.30 369.62 309.29 356.25 310.03 342.92 C 310.76 340.01 306.48 338.90 304.98 341.04 M 714.20 340.25 C 713.17 342.04 713.74 344.12 713.89 346.05 C 715.19 355.98 714.65 366.02 714.92 376.00 C 715.14 379.69 713.54 384.32 717.01 386.98 C 724.17 393.13 730.54 400.11 737.34 406.65 C 741.95 410.72 745.86 415.49 750.24 419.80 C 758.28 427.88 766.36 435.93 773.97 444.41 C 773.99 445.05 774.02 446.32 774.03 446.95 C 757.57 465.47 739.76 482.74 722.33 500.34 C 719.90 502.92 716.93 505.08 715.01 508.09 C 713.98 517.35 714.17 526.68 714.01 535.98 C 714.13 540.51 713.61 545.13 714.56 549.61 C 715.99 551.58 718.92 551.23 720.51 549.64 C 736.69 534.46 752.51 518.91 768.26 503.28 C 779.35 492.40 790.11 481.18 801.51 470.61 C 806.84 465.27 812.84 460.53 817.43 454.50 C 821.75 449.47 820.79 441.33 816.23 436.77 C 799.18 419.49 781.55 402.79 764.46 385.55 C 749.37 370.91 735.05 355.48 719.58 341.23 C 718.12 339.88 715.97 338.67 714.20 340.25 M 151.86 689.83 C 141.66 698.54 136.05 711.77 135.05 724.98 C 135.10 731.65 134.47 738.42 135.97 744.99 C 137.96 755.29 143.23 764.96 150.77 772.25 C 158.55 779.70 169.56 782.60 180.07 783.00 C 192.98 783.23 206.36 777.57 213.74 766.72 C 217.05 761.28 220.45 755.45 221.13 749.01 C 215.47 747.84 209.64 748.81 203.92 748.15 C 200.17 747.88 199.94 752.69 198.17 754.99 C 190.25 768.41 168.35 767.55 160.13 754.86 C 155.30 748.29 154.65 739.92 154.19 732.06 C 154.40 722.88 155.39 712.83 161.66 705.60 C 170.26 695.12 188.58 695.24 196.94 705.95 C 199.46 708.49 200.04 712.23 202.26 714.95 C 205.42 715.81 208.76 714.89 211.99 715.10 C 215.00 714.90 218.29 715.69 221.03 714.10 C 219.24 705.03 214.57 696.55 207.83 690.22 C 192.54 676.75 167.26 676.32 151.86 689.83 M 468.45 691.49 C 457.56 702.23 453.29 718.03 453.51 732.97 C 454.61 746.76 458.08 761.63 468.70 771.32 C 478.14 781.11 492.82 784.29 505.93 782.41 C 516.52 781.30 526.46 775.13 532.17 766.15 C 535.28 760.81 538.31 755.09 539.17 748.91 C 532.83 748.17 526.41 748.48 520.05 748.39 C 517.35 751.09 516.96 755.36 514.28 758.15 C 508.26 765.44 497.45 765.99 489.09 763.01 C 481.76 760.56 476.49 753.83 474.55 746.51 C 472.69 738.47 472.37 730.11 473.26 721.91 C 474.64 713.70 478.34 704.99 486.00 700.83 C 492.04 696.88 499.76 697.50 506.39 699.46 C 512.80 701.64 517.02 707.38 519.59 713.38 C 520.10 715.31 522.32 715.36 523.97 715.28 C 529.00 715.06 534.05 715.14 539.08 714.85 C 537.75 704.24 531.57 694.34 523.19 687.80 C 507.07 676.48 482.54 677.06 468.45 691.49 M 353.43 684.95 C 353.52 695.80 353.58 706.66 354.00 717.51 C 351.53 716.70 350.47 714.09 348.47 712.64 C 339.93 706.07 327.18 704.79 318.04 710.86 C 310.65 715.94 306.53 724.54 304.81 733.13 C 302.19 743.70 303.71 755.04 308.09 764.94 C 311.38 772.50 317.84 779.06 326.02 781.03 C 333.34 783.22 341.65 781.51 347.56 776.68 C 350.23 774.82 351.94 771.77 354.97 770.43 C 355.07 773.25 354.83 776.08 355.12 778.90 C 355.40 779.07 355.95 779.40 356.23 779.57 C 361.01 780.07 365.88 780.09 370.67 779.71 C 371.51 774.88 370.82 769.91 371.17 765.03 C 370.80 738.35 371.10 711.67 370.99 685.00 C 371.05 683.59 370.63 682.27 370.14 680.99 C 365.13 680.85 360.10 680.83 355.09 680.94 C 352.91 680.85 353.51 683.59 353.43 684.95 M 548.08 681.15 C 547.87 712.43 548.05 743.71 548.01 774.99 C 548.05 776.71 547.72 779.33 549.91 779.91 C 555.13 779.88 560.48 780.40 565.63 779.65 C 565.95 765.80 565.54 751.92 565.71 738.07 C 565.57 732.59 568.39 726.86 573.41 724.37 C 576.62 722.56 580.47 722.62 584.02 723.06 C 587.96 723.96 590.79 727.43 591.79 731.23 C 593.63 738.35 592.64 745.75 592.83 753.01 C 592.98 761.57 592.66 770.15 593.11 778.71 C 593.40 778.99 593.97 779.57 594.26 779.86 C 599.19 780.16 604.14 779.92 609.08 780.00 C 609.64 778.39 609.97 776.71 609.94 775.01 C 610.03 766.99 609.99 758.97 610.00 750.95 C 609.93 742.12 610.42 733.18 608.61 724.48 C 607.11 719.08 604.30 713.58 599.39 710.56 C 593.37 707.13 585.91 705.87 579.30 708.31 C 573.85 709.64 569.81 713.71 565.95 717.51 C 564.93 705.40 566.33 693.17 565.09 681.09 C 559.42 681.03 553.75 680.93 548.08 681.15 M 252.50 707.53 C 242.86 709.58 234.67 716.46 230.55 725.35 C 225.67 735.11 225.62 746.53 227.94 757.00 C 230.67 767.46 238.43 776.86 248.88 780.22 C 255.61 782.46 262.94 782.44 269.89 781.41 C 281.39 779.06 291.62 770.24 294.72 758.79 C 296.78 752.41 295.81 745.63 295.99 739.05 C 295.32 727.53 288.70 716.11 278.24 710.85 C 270.33 706.91 261.13 706.10 252.50 707.53 M 408.51 707.67 C 396.60 709.78 387.15 719.51 384.01 730.99 C 379.36 744.15 381.82 759.58 390.32 770.65 C 401.24 783.23 421.79 785.82 435.47 776.28 C 439.33 773.79 441.73 769.68 443.68 765.63 C 444.23 764.19 445.07 761.75 443.03 761.11 C 438.39 760.61 433.69 760.66 429.05 761.12 C 425.43 762.98 422.81 766.87 418.50 767.44 C 408.49 769.88 397.93 759.05 401.21 749.29 C 415.45 748.60 429.86 749.64 444.13 748.67 C 447.57 748.59 447.27 744.48 447.69 742.04 C 447.85 730.99 443.66 719.24 434.45 712.58 C 427.04 707.32 417.30 705.90 408.51 707.67 M 647.81 709.86 C 644.46 711.99 642.88 715.79 640.06 718.44 C 639.94 715.31 640.04 712.19 639.89 709.08 C 634.46 707.43 628.54 708.11 623.00 708.84 C 623.00 731.24 623.01 753.65 623.16 776.06 C 622.89 777.62 623.79 778.86 624.72 780.02 C 629.79 779.92 634.88 780.11 639.96 779.92 C 640.17 779.65 640.61 779.12 640.83 778.86 C 640.80 768.57 640.68 758.28 640.81 748.00 C 640.64 741.31 640.55 733.67 645.63 728.58 C 650.25 722.90 657.99 722.36 664.73 721.78 C 665.25 718.88 664.89 715.92 665.00 713.01 C 664.81 711.04 665.63 708.51 663.69 707.21 C 658.36 705.60 652.45 706.99 647.81 709.86 M 695.11 707.19 C 686.99 708.43 679.19 712.64 674.45 719.48 C 666.00 731.67 665.05 748.03 670.33 761.69 C 673.93 770.63 681.75 777.88 691.05 780.51 C 700.02 782.92 709.97 782.55 718.41 778.48 C 726.39 774.67 732.03 767.02 734.50 758.65 C 736.68 752.30 735.92 745.53 735.97 738.95 C 734.92 728.75 730.06 718.52 721.47 712.59 C 713.76 707.45 704.16 706.26 695.11 707.19 M 769.08 713.13 C 766.85 714.73 765.36 717.15 763.05 718.66 C 762.91 715.78 763.15 712.88 762.69 710.04 C 761.82 708.41 759.71 708.25 758.08 708.21 C 754.50 708.20 750.90 708.05 747.34 708.45 C 747.17 708.68 746.83 709.14 746.66 709.37 C 745.61 732.19 746.38 755.02 746.67 777.84 C 746.44 779.58 748.56 780.05 749.91 779.96 C 754.23 779.97 758.57 780.12 762.89 779.86 C 764.44 778.37 763.45 775.96 763.71 774.07 C 763.91 761.04 763.02 747.98 763.92 734.97 C 764.79 725.56 776.45 719.82 784.59 724.22 C 789.67 727.19 790.64 733.58 790.57 738.96 C 790.25 750.63 790.74 762.30 790.69 773.98 C 790.95 775.96 790.20 778.67 792.25 779.91 C 797.11 780.05 802.00 780.06 806.87 779.89 C 807.13 779.65 807.65 779.16 807.91 778.91 C 808.42 764.94 807.94 750.95 808.11 736.98 C 807.97 730.45 807.37 723.60 804.14 717.79 C 801.54 712.76 796.63 709.01 791.06 707.94 C 783.45 705.62 775.10 708.21 769.08 713.13 M 844.43 707.57 C 837.23 709.22 830.26 712.75 825.66 718.67 C 819.42 725.92 817.47 735.71 817.20 745.02 C 817.03 753.66 819.27 762.58 824.71 769.43 C 831.02 777.76 841.59 782.42 851.98 782.01 C 859.87 782.46 867.88 780.02 874.16 775.21 C 881.32 769.65 885.96 761.04 886.94 752.06 C 887.07 745.42 887.71 738.61 885.77 732.15 C 883.27 723.80 878.19 715.85 870.44 711.51 C 862.60 707.15 853.18 705.96 844.43 707.57 Z" />
<path fill="#121212" opacity="1.00" d=" M 472.70 300.62 C 485.38 298.20 498.08 295.19 511.07 295.41 C 523.14 295.91 535.23 296.97 547.00 299.82 C 559.43 302.36 570.80 308.21 582.05 313.83 C 611.44 330.24 635.55 356.42 648.25 387.71 C 654.84 403.34 658.97 420.04 659.99 436.99 C 661.06 469.82 652.26 503.32 633.25 530.31 C 621.03 547.54 605.07 562.07 587.02 573.01 C 573.26 580.85 558.37 586.76 542.89 590.17 C 521.06 594.60 498.28 594.57 476.54 589.62 C 456.05 584.46 436.52 575.23 420.13 561.80 C 407.94 551.73 396.79 540.20 388.19 526.87 C 366.98 493.87 359.53 452.42 367.42 414.04 C 371.82 392.45 381.32 372.02 394.63 354.50 C 407.21 338.48 422.41 324.25 440.40 314.50 C 448.25 310.39 456.13 306.16 464.69 303.70 C 467.30 302.98 469.82 301.96 472.19 300.62 C 472.20 298.93 471.08 295.80 473.99 296.81 C 473.61 298.10 473.18 299.37 472.70 300.62 M 508.25 309.21 C 505.81 310.02 504.28 312.37 504.25 314.90 C 503.95 320.31 503.98 325.73 504.08 331.15 C 505.27 336.57 512.63 339.29 517.15 336.13 C 519.23 334.44 520.16 331.62 519.97 329.00 C 519.79 323.95 520.19 318.88 519.80 313.84 C 518.71 308.92 512.37 307.90 508.25 309.21 M 446.46 331.87 C 447.71 335.49 449.68 338.90 452.19 341.79 C 453.23 343.44 455.30 342.84 456.94 343.04 C 457.44 342.72 458.43 342.10 458.93 341.79 C 459.37 340.44 460.42 339.02 459.53 337.62 C 458.00 333.93 456.19 330.27 453.69 327.13 C 452.10 326.90 450.49 326.94 448.90 326.88 C 447.78 328.30 445.77 329.83 446.46 331.87 M 570.16 326.98 C 567.64 329.91 565.88 333.44 564.64 337.07 C 563.45 341.00 568.03 344.84 571.71 342.71 C 573.65 339.57 575.08 336.12 576.79 332.85 C 578.03 330.58 576.48 328.48 574.90 326.96 C 573.31 326.95 571.73 326.96 570.16 326.98 M 588.96 362.06 C 566.51 380.53 544.21 399.20 521.54 417.39 C 518.11 420.82 513.07 418.26 508.86 419.09 C 499.60 420.97 490.74 427.66 488.34 437.11 C 487.20 441.92 486.06 447.21 487.97 451.99 C 491.01 460.26 498.11 466.91 506.49 469.60 C 513.25 471.43 520.31 468.78 525.57 464.49 C 531.61 460.61 537.35 454.58 537.45 446.98 C 537.86 443.83 536.03 440.08 538.64 437.53 C 557.70 413.56 576.26 389.17 595.12 365.04 C 595.62 364.06 596.00 363.03 596.27 361.96 C 594.94 361.19 593.74 359.58 592.03 360.04 C 590.92 360.57 589.93 361.31 588.96 362.06 M 398.00 375.97 C 397.99 376.69 397.99 378.14 397.99 378.86 C 400.35 382.08 404.32 383.25 407.64 385.19 C 409.18 385.79 410.78 387.44 412.51 386.49 C 414.92 385.41 416.77 382.69 415.95 380.00 C 412.12 376.34 406.98 374.52 402.45 371.91 C 400.60 372.82 399.09 374.23 398.00 375.97 M 619.50 372.65 C 615.85 374.62 611.99 376.46 608.93 379.31 C 607.02 381.98 610.04 384.57 612.15 385.91 C 615.35 386.59 617.99 384.17 620.61 382.75 C 623.05 381.21 626.58 379.37 626.00 375.91 C 625.67 372.83 622.22 370.85 619.50 372.65 M 619.10 437.02 C 614.85 441.30 616.91 449.57 623.04 450.75 C 629.40 450.90 635.83 450.87 642.18 450.22 C 644.34 450.18 645.62 448.28 647.00 446.89 C 647.05 444.07 647.37 441.20 646.80 438.41 C 644.01 433.42 637.69 434.89 632.98 434.46 C 628.33 434.55 622.69 433.23 619.10 437.02 M 381.23 435.17 C 374.80 437.60 374.72 449.57 381.91 450.92 C 387.61 451.10 393.31 450.96 399.01 450.99 C 402.33 451.18 406.01 449.38 407.18 446.13 C 409.61 441.49 405.62 434.19 400.01 435.01 C 393.75 435.09 387.47 434.79 381.23 435.17 M 396.87 506.35 C 396.49 509.30 398.24 511.99 401.05 512.91 C 404.87 511.78 408.06 509.32 411.47 507.36 C 413.22 506.45 414.15 504.65 415.15 503.05 C 414.13 500.68 412.20 497.40 409.14 498.51 C 404.70 500.49 400.60 503.25 396.87 506.35 M 611.02 501.97 C 610.58 504.37 611.64 507.09 613.94 508.16 C 617.18 509.91 620.45 511.66 623.89 513.01 C 626.48 512.13 628.93 509.16 627.62 506.38 C 623.68 503.28 619.46 500.47 615.06 498.08 C 613.51 499.12 611.71 500.11 611.02 501.97 M 451.41 543.19 C 448.97 545.40 447.89 548.61 446.27 551.39 C 445.23 553.34 443.61 555.64 445.11 557.84 C 447.28 560.05 451.57 560.01 453.16 557.14 C 454.98 554.20 456.95 551.26 458.00 547.95 C 457.92 544.95 454.31 542.33 451.41 543.19 M 566.75 549.21 C 568.27 553.45 570.24 558.70 575.06 560.02 C 577.40 559.01 580.14 556.95 579.14 554.02 C 577.68 550.58 575.42 547.53 573.42 544.40 C 570.80 540.71 564.81 545.57 566.75 549.21 M 510.39 549.56 C 508.05 550.47 505.28 552.04 505.09 554.85 C 504.92 560.90 505.08 566.97 504.99 573.03 C 504.43 578.30 511.28 581.49 515.63 579.56 C 517.97 578.31 520.12 575.93 519.99 573.13 C 519.98 567.40 520.07 561.67 519.93 555.95 C 519.48 551.53 514.56 548.56 510.39 549.56 Z" />
<path fill="#121212" opacity="1.00" d=" M 512.18 438.03 C 516.06 438.09 519.53 442.76 517.28 446.33 C 515.51 451.10 507.48 450.22 506.96 445.12 C 505.99 441.60 508.94 438.69 512.18 438.03 Z" />
<path fill="#121212" opacity="1.00" d=" M 257.43 722.53 C 262.68 721.23 268.58 722.78 272.39 726.65 C 276.75 730.85 278.34 737.07 278.61 742.95 C 279.10 750.14 277.21 757.88 272.11 763.18 C 265.59 769.63 253.45 768.23 248.50 760.52 C 243.65 753.42 242.98 744.13 244.99 735.96 C 246.40 729.77 251.02 723.91 257.43 722.53 Z" />
<path fill="#121212" opacity="1.00" d=" M 334.49 722.56 C 339.70 720.97 345.57 722.97 349.27 726.82 C 353.64 731.76 354.61 738.62 354.78 744.96 C 354.26 751.42 353.48 758.81 348.16 763.25 C 343.97 767.01 337.84 768.06 332.53 766.52 C 326.24 764.08 323.30 757.28 322.13 751.09 C 321.14 744.05 321.26 736.35 324.96 730.05 C 327.12 726.57 330.39 723.50 334.49 722.56 Z" />
<path fill="#121212" opacity="1.00" d=" M 400.86 738.02 C 399.18 729.82 406.83 721.74 414.95 721.75 C 421.31 721.50 427.50 725.93 429.27 732.06 C 429.83 733.92 431.01 736.74 428.82 737.95 C 419.50 738.18 410.18 737.90 400.86 738.02 Z" />
<path fill="#121212" opacity="1.00" d=" M 697.45 722.55 C 702.87 721.11 709.20 722.71 712.92 727.03 C 718.00 732.65 719.34 740.78 718.44 748.10 C 717.60 754.81 714.69 761.96 708.44 765.32 C 703.23 768.45 696.27 767.14 691.82 763.28 C 686.48 758.51 684.41 751.03 684.57 744.07 C 684.45 735.44 688.14 724.83 697.45 722.55 Z" />
<path fill="#121212" opacity="1.00" d=" M 848.44 722.56 C 853.89 721.23 860.12 722.88 863.86 727.16 C 867.41 730.83 868.32 736.10 868.98 740.97 C 869.43 748.56 868.70 757.25 862.99 762.90 C 858.38 767.85 850.36 768.57 844.58 765.35 C 840.27 763.00 837.47 758.54 836.20 753.89 C 834.23 746.53 834.35 738.43 837.46 731.40 C 839.40 726.93 843.59 723.37 848.44 722.56 Z" />
</g>
<g id="#fafafaff">
<path fill="#fafafa" opacity="1.00" d=" M 460.12 204.28 C 462.69 199.14 468.38 196.43 474.01 196.79 C 489.01 196.92 504.03 196.96 519.04 196.99 C 530.34 197.21 541.65 196.21 552.95 196.91 C 558.73 197.18 564.05 202.06 564.50 207.90 C 565.02 215.32 564.34 222.76 563.85 230.17 C 563.13 234.93 558.83 238.58 554.10 238.93 C 548.04 239.21 541.98 238.81 535.93 239.14 C 534.48 239.18 532.72 240.30 533.17 241.98 C 533.34 248.36 533.40 254.73 533.22 261.11 C 532.87 262.82 534.74 263.65 536.13 263.79 C 568.63 268.44 599.89 281.85 625.52 302.40 C 628.76 304.90 631.33 308.33 635.02 310.20 C 639.47 308.26 642.28 303.73 646.11 300.79 C 643.77 295.64 637.35 292.28 637.92 286.00 C 637.19 281.05 641.32 277.65 644.53 274.62 C 647.24 272.33 649.20 269.13 652.40 267.44 C 656.95 265.80 662.80 265.92 666.29 269.72 C 670.91 274.43 674.98 279.66 679.46 284.50 C 683.27 289.32 688.23 293.18 691.52 298.40 C 692.43 302.30 694.14 306.99 691.48 310.60 C 689.90 312.95 687.55 314.62 685.63 316.66 C 683.27 318.88 681.36 321.63 678.63 323.43 C 675.16 325.01 670.82 325.32 667.42 323.44 C 664.58 321.30 662.66 318.17 659.77 316.09 C 658.44 315.26 657.46 316.82 656.66 317.61 C 654.36 320.38 651.87 323.03 649.91 326.04 C 650.12 327.22 651.11 328.05 651.79 328.99 C 659.85 337.73 665.97 348.02 671.78 358.33 C 684.07 382.05 691.41 408.43 692.45 435.15 C 693.15 440.73 693.00 446.38 692.42 451.97 C 691.61 465.03 690.78 478.21 687.50 490.94 C 682.52 508.46 675.66 525.58 665.81 540.96 C 655.86 556.79 643.06 570.65 629.03 582.93 C 614.00 595.90 597.07 606.70 578.82 614.53 C 567.03 619.45 554.53 622.40 542.03 624.90 C 527.47 627.55 512.61 627.05 497.89 626.90 C 468.57 624.42 439.74 614.99 415.01 598.95 C 397.20 587.22 381.00 572.89 367.74 556.16 C 348.84 532.60 337.94 503.47 332.83 473.93 C 330.80 459.73 330.59 445.30 331.20 430.98 C 333.13 414.85 335.47 398.56 341.30 383.32 C 346.92 365.93 356.16 349.84 367.30 335.43 C 393.20 301.86 430.22 275.99 471.96 266.92 C 478.19 265.01 484.78 264.77 491.03 263.02 C 490.97 255.35 491.08 247.68 490.93 240.02 C 490.71 239.78 490.25 239.30 490.03 239.07 C 482.73 238.63 475.35 239.59 468.12 238.41 C 463.61 237.78 459.57 233.66 460.00 228.95 C 460.44 220.73 458.50 212.42 460.12 204.28 M 472.70 300.62 C 473.18 299.37 473.61 298.10 473.99 296.81 C 471.08 295.80 472.20 298.93 472.19 300.62 C 469.82 301.96 467.30 302.98 464.69 303.70 C 456.13 306.16 448.25 310.39 440.40 314.50 C 422.41 324.25 407.21 338.48 394.63 354.50 C 381.32 372.02 371.82 392.45 367.42 414.04 C 359.53 452.42 366.98 493.87 388.19 526.87 C 396.79 540.20 407.94 551.73 420.13 561.80 C 436.52 575.23 456.05 584.46 476.54 589.62 C 498.28 594.57 521.06 594.60 542.89 590.17 C 558.37 586.76 573.26 580.85 587.02 573.01 C 605.07 562.07 621.03 547.54 633.25 530.31 C 652.26 503.32 661.06 469.82 659.99 436.99 C 658.97 420.04 654.84 403.34 648.25 387.71 C 635.55 356.42 611.44 330.24 582.05 313.83 C 570.80 308.21 559.43 302.36 547.00 299.82 C 535.23 296.97 523.14 295.91 511.07 295.41 C 498.08 295.19 485.38 298.20 472.70 300.62 Z" />
<path fill="#fafafa" opacity="1.00" d=" M 508.25 309.21 C 512.37 307.90 518.71 308.92 519.80 313.84 C 520.19 318.88 519.79 323.95 519.97 329.00 C 520.16 331.62 519.23 334.44 517.15 336.13 C 512.63 339.29 505.27 336.57 504.08 331.15 C 503.98 325.73 503.95 320.31 504.25 314.90 C 504.28 312.37 505.81 310.02 508.25 309.21 Z" />
<path fill="#fafafa" opacity="1.00" d=" M 446.46 331.87 C 445.77 329.83 447.78 328.30 448.90 326.88 C 450.49 326.94 452.10 326.90 453.69 327.13 C 456.19 330.27 458.00 333.93 459.53 337.62 C 460.42 339.02 459.37 340.44 458.93 341.79 C 458.43 342.10 457.44 342.72 456.94 343.04 C 455.30 342.84 453.23 343.44 452.19 341.79 C 449.68 338.90 447.71 335.49 446.46 331.87 Z" />
<path fill="#fafafa" opacity="1.00" d=" M 570.16 326.98 C 571.73 326.96 573.31 326.95 574.90 326.96 C 576.48 328.48 578.03 330.58 576.79 332.85 C 575.08 336.12 573.65 339.57 571.71 342.71 C 568.03 344.84 563.45 341.00 564.64 337.07 C 565.88 333.44 567.64 329.91 570.16 326.98 Z" />
<path fill="#fafafa" opacity="1.00" d=" M 304.98 341.04 C 306.48 338.90 310.76 340.01 310.03 342.92 C 309.29 356.25 309.30 369.62 309.32 382.96 C 309.15 384.86 307.42 385.96 306.27 387.27 C 287.53 406.92 267.61 425.41 248.86 445.03 C 248.92 445.44 249.03 446.24 249.08 446.65 C 259.85 459.23 271.79 470.77 283.51 482.47 C 291.52 491.17 299.61 499.87 309.00 507.12 C 308.89 521.37 310.42 535.64 308.98 549.86 C 307.01 551.44 304.43 551.17 302.89 549.17 C 289.41 535.97 275.85 522.86 262.50 509.54 C 246.77 494.27 231.53 478.49 215.45 463.58 C 212.54 460.82 209.74 457.94 206.86 455.16 C 204.22 452.44 202.04 448.42 203.46 444.59 C 204.41 439.60 208.88 436.60 212.06 433.04 C 222.06 422.36 232.87 412.50 243.12 402.07 C 260.99 384.97 277.87 366.86 296.07 350.11 C 299.31 347.36 302.10 344.15 304.98 341.04 Z" />
<path fill="#fafafa" opacity="1.00" d=" M 714.20 340.25 C 715.97 338.67 718.12 339.88 719.58 341.23 C 735.05 355.48 749.37 370.91 764.46 385.55 C 781.55 402.79 799.18 419.49 816.23 436.77 C 820.79 441.33 821.75 449.47 817.43 454.50 C 812.84 460.53 806.84 465.27 801.51 470.61 C 790.11 481.18 779.35 492.40 768.26 503.28 C 752.51 518.91 736.69 534.46 720.51 549.64 C 718.92 551.23 715.99 551.58 714.56 549.61 C 713.61 545.13 714.13 540.51 714.01 535.98 C 714.17 526.68 713.98 517.35 715.01 508.09 C 716.93 505.08 719.90 502.92 722.33 500.34 C 739.76 482.74 757.57 465.47 774.03 446.95 C 774.02 446.32 773.99 445.05 773.97 444.41 C 766.36 435.93 758.28 427.88 750.24 419.80 C 745.86 415.49 741.95 410.72 737.34 406.65 C 730.54 400.11 724.17 393.13 717.01 386.98 C 713.54 384.32 715.14 379.69 714.92 376.00 C 714.65 366.02 715.19 355.98 713.89 346.05 C 713.74 344.12 713.17 342.04 714.20 340.25 Z" />
<path fill="#fafafa" opacity="1.00" d=" M 588.96 362.06 C 589.93 361.31 590.92 360.57 592.03 360.04 C 593.74 359.58 594.94 361.19 596.27 361.96 C 596.00 363.03 595.62 364.06 595.12 365.04 C 576.26 389.17 557.70 413.56 538.64 437.53 C 536.03 440.08 537.86 443.83 537.45 446.98 C 537.35 454.58 531.61 460.61 525.57 464.49 C 520.31 468.78 513.25 471.43 506.49 469.60 C 498.11 466.91 491.01 460.26 487.97 451.99 C 486.06 447.21 487.20 441.92 488.34 437.11 C 490.74 427.66 499.60 420.97 508.86 419.09 C 513.07 418.26 518.11 420.82 521.54 417.39 C 544.21 399.20 566.51 380.53 588.96 362.06 M 512.18 438.03 C 508.94 438.69 505.99 441.60 506.96 445.12 C 507.48 450.22 515.51 451.10 517.28 446.33 C 519.53 442.76 516.06 438.09 512.18 438.03 Z" />
<path fill="#fafafa" opacity="1.00" d=" M 398.00 375.97 C 399.09 374.23 400.60 372.82 402.45 371.91 C 406.98 374.52 412.12 376.34 415.95 380.00 C 416.77 382.69 414.92 385.41 412.51 386.49 C 410.78 387.44 409.18 385.79 407.64 385.19 C 404.32 383.25 400.35 382.08 397.99 378.86 C 397.99 378.14 397.99 376.69 398.00 375.97 Z" />
<path fill="#fafafa" opacity="1.00" d=" M 619.50 372.65 C 622.22 370.85 625.67 372.83 626.00 375.91 C 626.58 379.37 623.05 381.21 620.61 382.75 C 617.99 384.17 615.35 386.59 612.15 385.91 C 610.04 384.57 607.02 381.98 608.93 379.31 C 611.99 376.46 615.85 374.62 619.50 372.65 Z" />
<path fill="#fafafa" opacity="1.00" d=" M 619.10 437.02 C 622.69 433.23 628.33 434.55 632.98 434.46 C 637.69 434.89 644.01 433.42 646.80 438.41 C 647.37 441.20 647.05 444.07 647.00 446.89 C 645.62 448.28 644.34 450.18 642.18 450.22 C 635.83 450.87 629.40 450.90 623.04 450.75 C 616.91 449.57 614.85 441.30 619.10 437.02 Z" />
<path fill="#fafafa" opacity="1.00" d=" M 381.23 435.17 C 387.47 434.79 393.75 435.09 400.01 435.01 C 405.62 434.19 409.61 441.49 407.18 446.13 C 406.01 449.38 402.33 451.18 399.01 450.99 C 393.31 450.96 387.61 451.10 381.91 450.92 C 374.72 449.57 374.80 437.60 381.23 435.17 Z" />
<path fill="#fafafa" opacity="1.00" d=" M 396.87 506.35 C 400.60 503.25 404.70 500.49 409.14 498.51 C 412.20 497.40 414.13 500.68 415.15 503.05 C 414.15 504.65 413.22 506.45 411.47 507.36 C 408.06 509.32 404.87 511.78 401.05 512.91 C 398.24 511.99 396.49 509.30 396.87 506.35 Z" />
<path fill="#fafafa" opacity="1.00" d=" M 611.02 501.97 C 611.71 500.11 613.51 499.12 615.06 498.08 C 619.46 500.47 623.68 503.28 627.62 506.38 C 628.93 509.16 626.48 512.13 623.89 513.01 C 620.45 511.66 617.18 509.91 613.94 508.16 C 611.64 507.09 610.58 504.37 611.02 501.97 Z" />
<path fill="#fafafa" opacity="1.00" d=" M 451.41 543.19 C 454.31 542.33 457.92 544.95 458.00 547.95 C 456.95 551.26 454.98 554.20 453.16 557.14 C 451.57 560.01 447.28 560.05 445.11 557.84 C 443.61 555.64 445.23 553.34 446.27 551.39 C 447.89 548.61 448.97 545.40 451.41 543.19 Z" />
<path fill="#fafafa" opacity="1.00" d=" M 566.75 549.21 C 564.81 545.57 570.80 540.71 573.42 544.40 C 575.42 547.53 577.68 550.58 579.14 554.02 C 580.14 556.95 577.40 559.01 575.06 560.02 C 570.24 558.70 568.27 553.45 566.75 549.21 Z" />
<path fill="#fafafa" opacity="1.00" d=" M 510.39 549.56 C 514.56 548.56 519.48 551.53 519.93 555.95 C 520.07 561.67 519.98 567.40 519.99 573.13 C 520.12 575.93 517.97 578.31 515.63 579.56 C 511.28 581.49 504.43 578.30 504.99 573.03 C 505.08 566.97 504.92 560.90 505.09 554.85 C 505.28 552.04 508.05 550.47 510.39 549.56 Z" />
<path fill="#fafafa" opacity="1.00" d=" M 151.86 689.83 C 167.26 676.32 192.54 676.75 207.83 690.22 C 214.57 696.55 219.24 705.03 221.03 714.10 C 218.29 715.69 215.00 714.90 211.99 715.10 C 208.76 714.89 205.42 715.81 202.26 714.95 C 200.04 712.23 199.46 708.49 196.94 705.95 C 188.58 695.24 170.26 695.12 161.66 705.60 C 155.39 712.83 154.40 722.88 154.19 732.06 C 154.65 739.92 155.30 748.29 160.13 754.86 C 168.35 767.55 190.25 768.41 198.17 754.99 C 199.94 752.69 200.17 747.88 203.92 748.15 C 209.64 748.81 215.47 747.84 221.13 749.01 C 220.45 755.45 217.05 761.28 213.74 766.72 C 206.36 777.57 192.98 783.23 180.07 783.00 C 169.56 782.60 158.55 779.70 150.77 772.25 C 143.23 764.96 137.96 755.29 135.97 744.99 C 134.47 738.42 135.10 731.65 135.05 724.98 C 136.05 711.77 141.66 698.54 151.86 689.83 Z" />
<path fill="#fafafa" opacity="1.00" d=" M 468.45 691.49 C 482.54 677.06 507.07 676.48 523.19 687.80 C 531.57 694.34 537.75 704.24 539.08 714.85 C 534.05 715.14 529.00 715.06 523.97 715.28 C 522.32 715.36 520.10 715.31 519.59 713.38 C 517.02 707.38 512.80 701.64 506.39 699.46 C 499.76 697.50 492.04 696.88 486.00 700.83 C 478.34 704.99 474.64 713.70 473.26 721.91 C 472.37 730.11 472.69 738.47 474.55 746.51 C 476.49 753.83 481.76 760.56 489.09 763.01 C 497.45 765.99 508.26 765.44 514.28 758.15 C 516.96 755.36 517.35 751.09 520.05 748.39 C 526.41 748.48 532.83 748.17 539.17 748.91 C 538.31 755.09 535.28 760.81 532.17 766.15 C 526.46 775.13 516.52 781.30 505.93 782.41 C 492.82 784.29 478.14 781.11 468.70 771.32 C 458.08 761.63 454.61 746.76 453.51 732.97 C 453.29 718.03 457.56 702.23 468.45 691.49 Z" />
<path fill="#fafafa" opacity="1.00" d=" M 353.43 684.95 C 353.51 683.59 352.91 680.85 355.09 680.94 C 360.10 680.83 365.13 680.85 370.14 680.99 C 370.63 682.27 371.05 683.59 370.99 685.00 C 371.10 711.67 370.80 738.35 371.17 765.03 C 370.82 769.91 371.51 774.88 370.67 779.71 C 365.88 780.09 361.01 780.07 356.23 779.57 C 355.95 779.40 355.40 779.07 355.12 778.90 C 354.83 776.08 355.07 773.25 354.97 770.43 C 351.94 771.77 350.23 774.82 347.56 776.68 C 341.65 781.51 333.34 783.22 326.02 781.03 C 317.84 779.06 311.38 772.50 308.09 764.94 C 303.71 755.04 302.19 743.70 304.81 733.13 C 306.53 724.54 310.65 715.94 318.04 710.86 C 327.18 704.79 339.93 706.07 348.47 712.64 C 350.47 714.09 351.53 716.70 354.00 717.51 C 353.58 706.66 353.52 695.80 353.43 684.95 M 334.49 722.56 C 330.39 723.50 327.12 726.57 324.96 730.05 C 321.26 736.35 321.14 744.05 322.13 751.09 C 323.30 757.28 326.24 764.08 332.53 766.52 C 337.84 768.06 343.97 767.01 348.16 763.25 C 353.48 758.81 354.26 751.42 354.78 744.96 C 354.61 738.62 353.64 731.76 349.27 726.82 C 345.57 722.97 339.70 720.97 334.49 722.56 Z" />
<path fill="#fafafa" opacity="1.00" d=" M 548.08 681.15 C 553.75 680.93 559.42 681.03 565.09 681.09 C 566.33 693.17 564.93 705.40 565.95 717.51 C 569.81 713.71 573.85 709.64 579.30 708.31 C 585.91 705.87 593.37 707.13 599.39 710.56 C 604.30 713.58 607.11 719.08 608.61 724.48 C 610.42 733.18 609.93 742.12 610.00 750.95 C 609.99 758.97 610.03 766.99 609.94 775.01 C 609.97 776.71 609.64 778.39 609.08 780.00 C 604.14 779.92 599.19 780.16 594.26 779.86 C 593.97 779.57 593.40 778.99 593.11 778.71 C 592.66 770.15 592.98 761.57 592.83 753.01 C 592.64 745.75 593.63 738.35 591.79 731.23 C 590.79 727.43 587.96 723.96 584.02 723.06 C 580.47 722.62 576.62 722.56 573.41 724.37 C 568.39 726.86 565.57 732.59 565.71 738.07 C 565.54 751.92 565.95 765.80 565.63 779.65 C 560.48 780.40 555.13 779.88 549.91 779.91 C 547.72 779.33 548.05 776.71 548.01 774.99 C 548.05 743.71 547.87 712.43 548.08 681.15 Z" />
<path fill="#fafafa" opacity="1.00" d=" M 252.50 707.53 C 261.13 706.10 270.33 706.91 278.24 710.85 C 288.70 716.11 295.32 727.53 295.99 739.05 C 295.81 745.63 296.78 752.41 294.72 758.79 C 291.62 770.24 281.39 779.06 269.89 781.41 C 262.94 782.44 255.61 782.46 248.88 780.22 C 238.43 776.86 230.67 767.46 227.94 757.00 C 225.62 746.53 225.67 735.11 230.55 725.35 C 234.67 716.46 242.86 709.58 252.50 707.53 M 257.43 722.53 C 251.02 723.91 246.40 729.77 244.99 735.96 C 242.98 744.13 243.65 753.42 248.50 760.52 C 253.45 768.23 265.59 769.63 272.11 763.18 C 277.21 757.88 279.10 750.14 278.61 742.95 C 278.34 737.07 276.75 730.85 272.39 726.65 C 268.58 722.78 262.68 721.23 257.43 722.53 Z" />
<path fill="#fafafa" opacity="1.00" d=" M 408.51 707.67 C 417.30 705.90 427.04 707.32 434.45 712.58 C 443.66 719.24 447.85 730.99 447.69 742.04 C 447.27 744.48 447.57 748.59 444.13 748.67 C 429.86 749.64 415.45 748.60 401.21 749.29 C 397.93 759.05 408.49 769.88 418.50 767.44 C 422.81 766.87 425.43 762.98 429.05 761.12 C 433.69 760.66 438.39 760.61 443.03 761.11 C 445.07 761.75 444.23 764.19 443.68 765.63 C 441.73 769.68 439.33 773.79 435.47 776.28 C 421.79 785.82 401.24 783.23 390.32 770.65 C 381.82 759.58 379.36 744.15 384.01 730.99 C 387.15 719.51 396.60 709.78 408.51 707.67 M 400.86 738.02 C 410.18 737.90 419.50 738.18 428.82 737.95 C 431.01 736.74 429.83 733.92 429.27 732.06 C 427.50 725.93 421.31 721.50 414.95 721.75 C 406.83 721.74 399.18 729.82 400.86 738.02 Z" />
<path fill="#fafafa" opacity="1.00" d=" M 647.81 709.86 C 652.45 706.99 658.36 705.60 663.69 707.21 C 665.63 708.51 664.81 711.04 665.00 713.01 C 664.89 715.92 665.25 718.88 664.73 721.78 C 657.99 722.36 650.25 722.90 645.63 728.58 C 640.55 733.67 640.64 741.31 640.81 748.00 C 640.68 758.28 640.80 768.57 640.83 778.86 C 640.61 779.12 640.17 779.65 639.96 779.92 C 634.88 780.11 629.79 779.92 624.72 780.02 C 623.79 778.86 622.89 777.62 623.16 776.06 C 623.01 753.65 623.00 731.24 623.00 708.84 C 628.54 708.11 634.46 707.43 639.89 709.08 C 640.04 712.19 639.94 715.31 640.06 718.44 C 642.88 715.79 644.46 711.99 647.81 709.86 Z" />
<path fill="#fafafa" opacity="1.00" d=" M 695.11 707.19 C 704.16 706.26 713.76 707.45 721.47 712.59 C 730.06 718.52 734.92 728.75 735.97 738.95 C 735.92 745.53 736.68 752.30 734.50 758.65 C 732.03 767.02 726.39 774.67 718.41 778.48 C 709.97 782.55 700.02 782.92 691.05 780.51 C 681.75 777.88 673.93 770.63 670.33 761.69 C 665.05 748.03 666.00 731.67 674.45 719.48 C 679.19 712.64 686.99 708.43 695.11 707.19 M 697.45 722.55 C 688.14 724.83 684.45 735.44 684.57 744.07 C 684.41 751.03 686.48 758.51 691.82 763.28 C 696.27 767.14 703.23 768.45 708.44 765.32 C 714.69 761.96 717.60 754.81 718.44 748.10 C 719.34 740.78 718.00 732.65 712.92 727.03 C 709.20 722.71 702.87 721.11 697.45 722.55 Z" />
<path fill="#fafafa" opacity="1.00" d=" M 769.08 713.13 C 775.10 708.21 783.45 705.62 791.06 707.94 C 796.63 709.01 801.54 712.76 804.14 717.79 C 807.37 723.60 807.97 730.45 808.11 736.98 C 807.94 750.95 808.42 764.94 807.91 778.91 C 807.65 779.16 807.13 779.65 806.87 779.89 C 802.00 780.06 797.11 780.05 792.25 779.91 C 790.20 778.67 790.95 775.96 790.69 773.98 C 790.74 762.30 790.25 750.63 790.57 738.96 C 790.64 733.58 789.67 727.19 784.59 724.22 C 776.45 719.82 764.79 725.56 763.92 734.97 C 763.02 747.98 763.91 761.04 763.71 774.07 C 763.45 775.96 764.44 778.37 762.89 779.86 C 758.57 780.12 754.23 779.97 749.91 779.96 C 748.56 780.05 746.44 779.58 746.67 777.84 C 746.38 755.02 745.61 732.19 746.66 709.37 C 746.83 709.14 747.17 708.68 747.34 708.45 C 750.90 708.05 754.50 708.20 758.08 708.21 C 759.71 708.25 761.82 708.41 762.69 710.04 C 763.15 712.88 762.91 715.78 763.05 718.66 C 765.36 717.15 766.85 714.73 769.08 713.13 Z" />
<path fill="#fafafa" opacity="1.00" d=" M 844.43 707.57 C 853.18 705.96 862.60 707.15 870.44 711.51 C 878.19 715.85 883.27 723.80 885.77 732.15 C 887.71 738.61 887.07 745.42 886.94 752.06 C 885.96 761.04 881.32 769.65 874.16 775.21 C 867.88 780.02 859.87 782.46 851.98 782.01 C 841.59 782.42 831.02 777.76 824.71 769.43 C 819.27 762.58 817.03 753.66 817.20 745.02 C 817.47 735.71 819.42 725.92 825.66 718.67 C 830.26 712.75 837.23 709.22 844.43 707.57 M 848.44 722.56 C 843.59 723.37 839.40 726.93 837.46 731.40 C 834.35 738.43 834.23 746.53 836.20 753.89 C 837.47 758.54 840.27 763.00 844.58 765.35 C 850.36 768.57 858.38 767.85 862.99 762.90 C 868.70 757.25 869.43 748.56 868.98 740.97 C 868.32 736.10 867.41 730.83 863.86 727.16 C 860.12 722.88 853.89 721.23 848.44 722.56 Z" />
</g>
</svg>
